<svg xmlns="http://www.w3.org/2000/svg" viewBox="0 0 220 220" role="img" aria-labelledby="title desc">
  <title id="title">John Castro brand mark</title>
  <desc id="desc">Rounded square monogram logo with cyan and green accents</desc>
  <defs>
    <linearGradient id="g" x1="0" x2="1" y1="0" y2="1">
      <stop offset="0%" stop-color="#38bdf8"/>
      <stop offset="100%" stop-color="#22c55e"/>
    </linearGradient>
  </defs>
  <rect width="220" height="220" rx="52" fill="#03111f"/>
  <circle cx="58" cy="62" r="18" fill="#22c55e"/>
  <path fill="url(#g)" d="M69 61h31v64c0 19 8 28 24 28 10 0 20-3 28-10l12 23c-12 10-28 16-48 16-36 0-47-21-47-52V61zm76 0h31v97c0 9-2 17-5 24s-8 13-14 18c-6 5-13 8-22 10l-10-23c7-2 12-5 16-10 3-5 5-11 5-20V61z"/>
</svg>
