<svg xmlns="http://www.w3.org/2000/svg" viewBox="0 0 640 640" role="img" aria-labelledby="title">
  <title id="title">App Store</title>
  <defs>
    <linearGradient id="bg" x1="50%" x2="50%" y1="0%" y2="100%">
      <stop offset="0%" stop-color="#28c4f4"/>
      <stop offset="100%" stop-color="#1f7cf2"/>
    </linearGradient>
  </defs>
  <rect width="640" height="640" rx="140" fill="url(#bg)"/>
  <g transform="translate(320 320) scale(1.32) translate(-320 -320)">
    <path
      fill="#ffffff"
      d="M319.9 184.9 329 169.2c5.6-9.8 18.1-13.1 27.9-7.5s13.1 18.1 7.5 27.9l-87.5 151.5h63.3c20.5 0 32 24.1 23.1 40.8H177.8c-11.3 0-20.4-9.1-20.4-20.4s9.1-20.4 20.4-20.4h52l66.6-115.4-20.8-36.1c-5.6-9.8-2.3-22.2 7.5-27.9s22.2-2.3 27.9 7.5l8.9 15.7ZM241.2 402.9l-19.6 34c-5.6 9.8-18.1 13.1-27.9 7.5s-13.1-18.1-7.5-27.9l14.6-25.2c16.4-5.1 29.8-1.2 40.4 11.6ZM410.1 341.2h53.1c11.3 0 20.4 9.1 20.4 20.4s-9.1 20.4-20.4 20.4h-29.5l19.9 34.5c5.6 9.8 2.3 22.2-7.5 27.9s-22.2 2.3-27.9-7.5c-33.5-58.1-58.7-101.6-75.4-130.6-17.1-29.5-4.9-59.1 7.2-69.1 13.4 23 33.4 57.7 60.1 104Z"
    />
  </g>
</svg>
